{
  "accessors": [
    {
      "bufferView": 2,
      "componentType": 5126,
      "count": 21522,
      "max": [
        0.99540185928344727,
        2.4104564189910889,
        0.78788661956787109
      ],
      "min": [
        -0.73861789703369141,
        -0.1696542352437973,
        -0.61329948902130127
      ],
      "type": "VEC3"
    },
    {
      "bufferView": 2,
      "byteOffset": 258264,
      "componentType": 5126,
      "count": 21522,
      "max": [
        0.99979472160339355,
        0.99993789196014404,
        0.99998116493225098
      ],
      "min": [
        -0.99991607666015625,
        -0.99972677230834961,
        -0.99997222423553467
      ],
      "type": "VEC3"
    },
    {
      "bufferView": 3,
      "componentType": 5126,
      "count": 21522,
      "max": [
        0.99993371963500977,
        0.99997615814208984,
        0.99995815753936768,
        1
      ],
      "min": [
        -0.99995148181915283,
        -0.99947494268417358,
        -0.99962633848190308,
        -1
      ],
      "type": "VEC4"
    },
    {
      "bufferView": 1,
      "componentType": 5126,
      "count": 21522,
      "max": [
        0.95037078857421875,
        0.99977898597717285
      ],
      "min": [
        0.00022106549295131117,
        0.00022106549295131117
      ],
      "type": "VEC2"
    },
    {
      "bufferView": 1,
      "byteOffset": 172176,
      "componentType": 5126,
      "count": 21522,
      "max": [
        0.95037078857421875,
        0.99977898597717285
      ],
      "min": [
        0.00022106549295131117,
        0.00022106549295131117
      ],
      "type": "VEC2"
    },
    {
      "bufferView": 0,
      "componentType": 5125,
      "count": 86976,
      "max": [
        21521
      ],
      "min": [
        0
      ],
      "type": "SCALAR"
    },
    {
      "bufferView": 2,
      "byteOffset": 516528,
      "componentType": 5126,
      "count": 3968,
      "max": [
        3.5175495147705078,
        -15.731977462768555,
        5.8619117736816406
      ],
      "min": [
        -0.7377089262008667,
        -18.414480209350586,
        3.7850987911224365
      ],
      "type": "VEC3"
    },
    {
      "bufferView": 2,
      "byteOffset": 564144,
      "componentType": 5126,
      "count": 3968,
      "max": [
        0.9986301064491272,
        0.99799978733062744,
        0.99859780073165894
      ],
      "min": [
        -0.99874264001846313,
        -0.9979478120803833,
        -0.99805045127868652
      ],
      "type": "VEC3"
    },
    {
      "bufferView": 3,
      "byteOffset": 344352,
      "componentType": 5126,
      "count": 3968,
      "max": [
        0.95536363124847412,
        0.40669208765029907,
        0.96717959642410278,
        1
      ],
      "min": [
        -0.95616042613983154,
        -0.40788385272026062,
        -0.9695315957069397,
        -1
      ],
      "type": "VEC4"
    },
    {
      "bufferView": 1,
      "byteOffset": 344352,
      "componentType": 5126,
      "count": 3968,
      "max": [
        0.51670855283737183,
        0.30687251687049866
      ],
      "min": [
        0.36619347333908081,
        0.16606083512306213
      ],
      "type": "VEC2"
    },
    {
      "bufferView": 1,
      "byteOffset": 376096,
      "componentType": 5126,
      "count": 3968,
      "max": [
        0.51670855283737183,
        0.30687251687049866
      ],
      "min": [
        0.36619347333908081,
        0.16606083512306213
      ],
      "type": "VEC2"
    },
    {
      "bufferView": 0,
      "byteOffset": 347904,
      "componentType": 5125,
      "count": 5760,
      "max": [
        3967
      ],
      "min": [
        0
      ],
      "type": "SCALAR"
    },
    {
      "bufferView": 2,
      "byteOffset": 611760,
      "componentType": 5126,
      "count": 2304,
      "max": [
        -6.0438461303710938,
        1.7361695766448975,
        52.040657043457031
      ],
      "min": [
        -8.4931640625,
        0.49585080146789551,
        49.732627868652344
      ],
      "type": "VEC3"
    },
    {
      "bufferView": 2,
      "byteOffset": 639408,
      "componentType": 5126,
      "count": 2304,
      "max": [
        0.97993636131286621,
        0.99220770597457886,
        0.98977255821228027
      ],
      "min": [
        -0.98016691207885742,
        -0.99221104383468628,
        -0.98984599113464355
      ],
      "type": "VEC3"
    },
    {
      "bufferView": 3,
      "byteOffset": 407840,
      "componentType": 5126,
      "count": 2304,
      "max": [
        0.99669176340103149,
        0.68440502882003784,
        0.40597906708717346,
        1
      ],
      "min": [
        -0.82288569211959839,
        -0.63418787717819214,
        -0.92578029632568359,
        -1
      ],
      "type": "VEC4"
    },
    {
      "bufferView": 1,
      "byteOffset": 407840,
      "componentType": 5126,
      "count": 2304,
      "max": [
        0.48966887593269348,
        0.15482646226882935
      ],
      "min": [
        0.3832150399684906,
        0.048372693359851837
      ],
      "type": "VEC2"
    },
    {
      "bufferView": 1,
      "byteOffset": 426272,
      "componentType": 5126,
      "count": 2304,
      "max": [
        0.48966887593269348,
        0.15482646226882935
      ],
      "min": [
        0.3832150399684906,
        0.048372693359851837
      ],
      "type": "VEC2"
    },
    {
      "bufferView": 0,
      "byteOffset": 370944,
      "componentType": 5125,
      "count": 3456,
      "max": [
        2303
      ],
      "min": [
        0
      ],
      "type": "SCALAR"
    },
    {
      "bufferView": 2,
      "byteOffset": 667056,
      "componentType": 5126,
      "count": 8526,
      "max": [
        0.34170165657997131,
        2.4813187122344971,
        0.79091346263885498
      ],
      "min": [
        -0.23249155282974243,
        1.9808031320571899,
        0.0011079014511778951
      ],
      "type": "VEC3"
    },
    {
      "bufferView": 2,
      "byteOffset": 769368,
      "componentType": 5126,
      "count": 8526,
      "max": [
        0.9995957612991333,
        0.99998056888580322,
        0.99466210603713989
      ],
      "min": [
        -0.9996870756149292,
        -0.99982857704162598,
        -0.99999260902404785
      ],
      "type": "VEC3"
    },
    {
      "bufferView": 3,
      "byteOffset": 444704,
      "componentType": 5126,
      "count": 8526,
      "max": [
        0.99981343746185303,
        0.95474272966384888,
        0.91699743270874023,
        1
      ],
      "min": [
        -0.99996852874755859,
        -0.99963533878326416,
        -0.93851578235626221,
        -1
      ],
      "type": "VEC4"
    },
    {
      "bufferView": 1,
      "byteOffset": 444704,
      "componentType": 5126,
      "count": 8526,
      "max": [
        1.0000001192092896,
        1.0000001192092896
      ],
      "min": [
        0.016229197382926941,
        0
      ],
      "type": "VEC2"
    },
    {
      "bufferView": 1,
      "byteOffset": 512912,
      "componentType": 5126,
      "count": 8526,
      "max": [
        1.0000001192092896,
        1.0000001192092896
      ],
      "min": [
        0.016229197382926941,
        0
      ],
      "type": "VEC2"
    },
    {
      "bufferView": 0,
      "byteOffset": 384768,
      "componentType": 5125,
      "count": 39360,
      "max": [
        8525
      ],
      "min": [
        0
      ],
      "type": "SCALAR"
    },
    {
      "bufferView": 2,
      "byteOffset": 871680,
      "componentType": 5126,
      "count": 559,
      "max": [
        1.0000002384185791,
        1,
        1.0000003576278687
      ],
      "min": [
        -0.99999982118606567,
        -1,
        -1
      ],
      "type": "VEC3"
    },
    {
      "bufferView": 2,
      "byteOffset": 878388,
      "componentType": 5126,
      "count": 559,
      "max": [
        1,
        1,
        1
      ],
      "min": [
        -1,
        -1,
        -1
      ],
      "type": "VEC3"
    },
    {
      "bufferView": 3,
      "byteOffset": 581120,
      "componentType": 5126,
      "count": 559,
      "max": [
        1,
        0.049124199897050858,
        1,
        1
      ],
      "min": [
        -1,
        -0.049123641103506088,
        -1,
        1
      ],
      "type": "VEC4"
    },
    {
      "bufferView": 1,
      "byteOffset": 581120,
      "componentType": 5126,
      "count": 559,
      "max": [
        1.0000002384185791,
        1
      ],
      "min": [
        0,
        0
      ],
      "type": "VEC2"
    },
    {
      "bufferView": 1,
      "byteOffset": 585592,
      "componentType": 5126,
      "count": 559,
      "max": [
        1.0000002384185791,
        1
      ],
      "min": [
        0,
        0
      ],
      "type": "VEC2"
    },
    {
      "bufferView": 0,
      "byteOffset": 542208,
      "componentType": 5125,
      "count": 2880,
      "max": [
        558
      ],
      "min": [
        0
      ],
      "type": "SCALAR"
    }
  ],
  "asset": {
    "extras": {
      "author": "Deciphers (https://sketchfab.com/marc.henf)",
      "license": "CC-BY-4.0 (http://creativecommons.org/licenses/by/4.0/)",
      "source": "https://sketchfab.com/3d-models/basketball-player-c6875999e2384f41af3f25141ad840c3",
      "title": "Basketball Player"
    },
    "generator": "Sketchfab-9.34.0",
    "version": "2.0"
  },
  "bufferViews": [
    {
      "buffer": 0,
      "byteLength": 553728,
      "byteOffset": 0,
      "name": "floatBufferViews",
      "target": 34963
    },
    {
      "buffer": 0,
      "byteLength": 590064,
      "byteOffset": 553728,
      "byteStride": 8,
      "name": "floatBufferViews",
      "target": 34962
    },
    {
      "buffer": 0,
      "byteLength": 885096,
      "byteOffset": 1143792,
      "byteStride": 12,
      "name": "floatBufferViews",
      "target": 34962
    },
    {
      "buffer": 0,
      "byteLength": 590064,
      "byteOffset": 2028888,
      "byteStride": 16,
      "name": "floatBufferViews",
      "target": 34962
    }
  ],
  "buffers": [
    {
      "byteLength": 2618952,
      "uri": "scene.bin"
    }
  ],
  "images": [
    {
      "uri": "textures/Boy_Material.002_baseColor.png"
    },
    {
      "uri": "textures/Boy_Material.002_normal.png"
    },
    {
      "uri": "textures/LP_Hat_Mat_baseColor.png"
    },
    {
      "uri": "textures/LP_Hat_Mat_normal.png"
    },
    {
      "uri": "textures/Material_baseColor.png"
    },
    {
      "uri": "textures/Material_normal.png"
    }
  ],
  "materials": [
    {
      "doubleSided": true,
      "emissiveFactor": [
        0,
        0,
        0
      ],
      "name": "Boy_Material.002",
      "normalTexture": {
        "index": 1,
        "scale": 1,
        "texCoord": 0
      },
      "pbrMetallicRoughness": {
        "baseColorFactor": [
          1,
          1,
          1,
          1
        ],
        "baseColorTexture": {
          "index": 0,
          "texCoord": 0
        },
        "metallicFactor": 0,
        "roughnessFactor": 0
      }
    },
    {
      "doubleSided": true,
      "emissiveFactor": [
        0,
        0,
        0
      ],
      "name": "LP_Hat_Mat",
      "normalTexture": {
        "index": 3,
        "scale": 1,
        "texCoord": 0
      },
      "pbrMetallicRoughness": {
        "baseColorFactor": [
          1,
          1,
          1,
          1
        ],
        "baseColorTexture": {
          "index": 2,
          "texCoord": 0
        },
        "metallicFactor": 0,
        "roughnessFactor": 0
      }
    },
    {
      "doubleSided": true,
      "emissiveFactor": [
        0,
        0,
        0
      ],
      "name": "Material",
      "normalTexture": {
        "index": 5,
        "scale": 1,
        "texCoord": 0
      },
      "pbrMetallicRoughness": {
        "baseColorFactor": [
          1,
          1,
          1,
          1
        ],
        "baseColorTexture": {
          "index": 4,
          "texCoord": 0
        },
        "metallicFactor": 0,
        "roughnessFactor": 0
      }
    }
  ],
  "meshes": [
    {
      "primitives": [
        {
          "attributes": {
            "NORMAL": 1,
            "POSITION": 0,
            "TANGENT": 2,
            "TEXCOORD_0": 3,
            "TEXCOORD_1": 4
          },
          "indices": 5,
          "material": 0,
          "mode": 4
        }
      ]
    },
    {
      "primitives": [
        {
          "attributes": {
            "NORMAL": 7,
            "POSITION": 6,
            "TANGENT": 8,
            "TEXCOORD_0": 9,
            "TEXCOORD_1": 10
          },
          "indices": 11,
          "material": 0,
          "mode": 4
        }
      ]
    },
    {
      "primitives": [
        {
          "attributes": {
            "NORMAL": 13,
            "POSITION": 12,
            "TANGENT": 14,
            "TEXCOORD_0": 15,
            "TEXCOORD_1": 16
          },
          "indices": 17,
          "material": 0,
          "mode": 4
        }
      ]
    },
    {
      "primitives": [
        {
          "attributes": {
            "NORMAL": 19,
            "POSITION": 18,
            "TANGENT": 20,
            "TEXCOORD_0": 21,
            "TEXCOORD_1": 22
          },
          "indices": 23,
          "material": 1,
          "mode": 4
        }
      ]
    },
    {
      "primitives": [
        {
          "attributes": {
            "NORMAL": 25,
            "POSITION": 24,
            "TANGENT": 26,
            "TEXCOORD_0": 27,
            "TEXCOORD_1": 28
          },
          "indices": 29,
          "material": 2,
          "mode": 4
        }
      ]
    }
  ],
  "nodes": [
    {
      "children": [
        1
      ],
      "name": "RootNode (gltf orientation matrix)",
      "rotation": [
        -0.70710678118654746,
        -0,
        -0,
        0.70710678118654757
      ]
    },
    {
      "children": [
        2
      ],
      "name": "RootNode (model correction matrix)"
    },
    {
      "children": [
        3
      ],
      "name": "root"
    },
    {
      "children": [
        4,
        6,
        8,
        10,
        12
      ],
      "matrix": [
        1,
        0,
        0,
        0,
        0,
        2.2204460492503131e-16,
        1,
        0,
        0,
        -1,
        2.2204460492503131e-16,
        0,
        0,
        0,
        0,
        1
      ],
      "name": "GLTF_SceneRootNode"
    },
    {
      "children": [
        5
      ],
      "name": "Body_0"
    },
    {
      "mesh": 0,
      "name": ""
    },
    {
      "children": [
        7
      ],
      "matrix": [
        0.080650337040424347,
        0,
        0,
        0,
        0,
        0.080650337040424347,
        0,
        0,
        0,
        0,
        0.080650337040424347,
        0,
        -0.096395865082740784,
        3.3829090595245361,
        0.23638834059238434,
        1
      ],
      "name": "Eyes_1"
    },
    {
      "mesh": 1,
      "name": ""
    },
    {
      "children": [
        9
      ],
      "matrix": [
        0.0087412293887754108,
        -0.0035301751630880647,
        -0.023326525729150591,
        0,
        0.02358238777409611,
        0.0020225306506778391,
        0.0085310249760055402,
        0,
        0.00067817855095155368,
        -0.02482831576218943,
        0.0040115883098897891,
        0,
        -0.23622772097587585,
        3.2626681327819824,
        0.036210328340530396,
        1
      ],
      "name": "Ring_2"
    },
    {
      "mesh": 2,
      "name": ""
    },
    {
      "children": [
        11
      ],
      "name": "Cap_3"
    },
    {
      "mesh": 3,
      "name": ""
    },
    {
      "children": [
        13
      ],
      "matrix": [
        -0.22847834222947683,
        0.19522920779951175,
        -0.16686124936893737,
        0,
        0.13045716682634845,
        0.28060212356452069,
        0.14967581254712234,
        0,
        0.22121945606711435,
        0.036159060551597136,
        -0.26060304599968426,
        0,
        0.24928990006446838,
        0.36787199974060059,
        0.24019211530685425,
        1
      ],
      "name": "Basketball_4"
    },
    {
      "mesh": 4,
      "name": ""
    }
  ],
  "samplers": [
    {
      "magFilter": 9729,
      "minFilter": 9987,
      "wrapS": 10497,
      "wrapT": 10497
    }
  ],
  "scene": 0,
  "scenes": [
    {
      "name": "OSG_Scene",
      "nodes": [
        0
      ]
    }
  ],
  "textures": [
    {
      "sampler": 0,
      "source": 0
    },
    {
      "sampler": 0,
      "source": 1
    },
    {
      "sampler": 0,
      "source": 2
    },
    {
      "sampler": 0,
      "source": 3
    },
    {
      "sampler": 0,
      "source": 4
    },
    {
      "sampler": 0,
      "source": 5
    }
  ]
}

