{
  "accessors": [
    {
      "bufferView": 1,
      "componentType": 5126,
      "count": 86,
      "max": [
        5.830803871154785,
        5.121603012084961,
        167.63909912109375
      ],
      "min": [
        -5.833477973937988,
        -11.12575626373291,
        149.56561279296875
      ],
      "type": "VEC3"
    },
    {
      "bufferView": 1,
      "byteOffset": 1032,
      "componentType": 5126,
      "count": 86,
      "max": [
        0.761443555355072,
        0.45049479603767395,
        0.9630376100540161
      ],
      "min": [
        -0.761443555355072,
        -0.9310121536254883,
        -0.7129606008529663
      ],
      "type": "VEC3"
    },
    {
      "bufferView": 0,
      "componentType": 5125,
      "count": 126,
      "type": "SCALAR"
    },
    {
      "bufferView": 1,
      "byteOffset": 2064,
      "componentType": 5126,
      "count": 1079,
      "max": [
        71.12650299072266,
        11.06550121307373,
        167.2877655029297
      ],
      "min": [
        -71.10955047607422,
        -19.89472770690918,
        0.0907711461186409
      ],
      "type": "VEC3"
    },
    {
      "bufferView": 1,
      "byteOffset": 15012,
      "componentType": 5126,
      "count": 1079,
      "max": [
        1.0,
        0.9998289942741394,
        1.0
      ],
      "min": [
        -0.9999933838844299,
        -0.9999992847442627,
        -1.0
      ],
      "type": "VEC3"
    },
    {
      "bufferView": 0,
      "byteOffset": 504,
      "componentType": 5125,
      "count": 3324,
      "type": "SCALAR"
    },
    {
      "bufferView": 1,
      "byteOffset": 27960,
      "componentType": 5126,
      "count": 32,
      "max": [
        90.28072357177734,
        11.051253318786621,
        158.90280151367188
      ],
      "min": [
        -71.12650299072266,
        0.67035973072052,
        153.26771545410156
      ],
      "type": "VEC3"
    },
    {
      "bufferView": 1,
      "byteOffset": 28344,
      "componentType": 5126,
      "count": 32,
      "max": [
        -0.09120523929595947,
        0.021602919325232506,
        0.027906976640224457
      ],
      "min": [
        -0.9998614192008972,
        -0.016487425193190575,
        -0.995597779750824
      ],
      "type": "VEC3"
    },
    {
      "bufferView": 0,
      "byteOffset": 13800,
      "componentType": 5125,
      "count": 48,
      "type": "SCALAR"
    },
    {
      "bufferView": 1,
      "byteOffset": 28728,
      "componentType": 5126,
      "count": 282,
      "max": [
        8.486408233642578,
        8.544805526733398,
        191.85040283203125
      ],
      "min": [
        -8.489082336425781,
        -11.803677558898926,
        169.7653045654297
      ],
      "type": "VEC3"
    },
    {
      "bufferView": 1,
      "byteOffset": 32112,
      "componentType": 5126,
      "count": 282,
      "max": [
        0.9983251094818115,
        0.9972229599952698,
        0.9982742071151733
      ],
      "min": [
        -0.9970558881759644,
        -0.9967553019523621,
        -0.6851600408554077
      ],
      "type": "VEC3"
    },
    {
      "bufferView": 0,
      "byteOffset": 13992,
      "componentType": 5125,
      "count": 837,
      "type": "SCALAR"
    },
    {
      "bufferView": 1,
      "byteOffset": 35496,
      "componentType": 5126,
      "count": 512,
      "max": [
        96.0501708984375,
        11.328893661499023,
        186.5862274169922
      ],
      "min": [
        -96.0508041381836,
        -13.634737014770508,
        152.31732177734375
      ],
      "type": "VEC3"
    },
    {
      "bufferView": 1,
      "byteOffset": 41640,
      "componentType": 5126,
      "count": 512,
      "max": [
        0.9966001510620117,
        0.9998400807380676,
        0.9999544024467468
      ],
      "min": [
        -0.9967986345291138,
        -0.9997809529304504,
        -0.9999909400939941
      ],
      "type": "VEC3"
    },
    {
      "bufferView": 0,
      "byteOffset": 17340,
      "componentType": 5125,
      "count": 1707,
      "type": "SCALAR"
    }
  ],
  "asset": {
    "extras": {
      "author": "ghostaryan83 (https://sketchfab.com/ghostaryan83)",
      "license": "CC-BY-4.0 (http://creativecommons.org/licenses/by/4.0/)",
      "source": "https://sketchfab.com/3d-models/hey-ed-rig-this-model-pls-6ed6ffd248634d1285e7d4f6f24a287c",
      "title": "Hey Ed rig this model pls"
    },
    "generator": "Sketchfab-12.48.0",
    "version": "2.0"
  },
  "bufferViews": [
    {
      "buffer": 0,
      "byteLength": 24168,
      "name": "floatBufferViews",
      "target": 34963
    },
    {
      "buffer": 0,
      "byteLength": 47784,
      "byteOffset": 24168,
      "byteStride": 12,
      "name": "floatBufferViews",
      "target": 34962
    }
  ],
  "buffers": [
    {
      "byteLength": 71952,
      "uri": "scene.bin"
    }
  ],
  "materials": [
    {
      "doubleSided": true,
      "name": "bila",
      "pbrMetallicRoughness": {
        "metallicFactor": 0.0,
        "roughnessFactor": 0.6
      }
    },
    {
      "doubleSided": true,
      "name": "cerna",
      "pbrMetallicRoughness": {
        "baseColorFactor": [
          0.002276636653708139,
          0.001128245093183278,
          0.001128245093183278,
          1.0
        ],
        "metallicFactor": 0.0,
        "roughnessFactor": 0.6
      }
    },
    {
      "doubleSided": true,
      "name": "default",
      "pbrMetallicRoughness": {
        "metallicFactor": 0.0,
        "roughnessFactor": 0.6
      }
    },
    {
      "doubleSided": true,
      "name": "hneda",
      "pbrMetallicRoughness": {
        "baseColorFactor": [
          0.204515812582055,
          0.03258581156044248,
          0.0010067417462568955,
          1.0
        ],
        "metallicFactor": 0.0,
        "roughnessFactor": 0.6
      }
    },
    {
      "doubleSided": true,
      "name": "tlov",
      "pbrMetallicRoughness": {
        "baseColorFactor": [
          0.8800600039596764,
          0.5275295574623997,
          0.2568000315419168,
          1.0
        ],
        "metallicFactor": 0.0,
        "roughnessFactor": 0.6
      }
    }
  ],
  "meshes": [
    {
      "name": "Object_0",
      "primitives": [
        {
          "attributes": {
            "NORMAL": 1,
            "POSITION": 0
          },
          "indices": 2,
          "material": 0,
          "mode": 4
        }
      ]
    },
    {
      "name": "Object_1",
      "primitives": [
        {
          "attributes": {
            "NORMAL": 4,
            "POSITION": 3
          },
          "indices": 5,
          "material": 1,
          "mode": 4
        }
      ]
    },
    {
      "name": "Object_2",
      "primitives": [
        {
          "attributes": {
            "NORMAL": 7,
            "POSITION": 6
          },
          "indices": 8,
          "material": 2,
          "mode": 4
        }
      ]
    },
    {
      "name": "Object_3",
      "primitives": [
        {
          "attributes": {
            "NORMAL": 10,
            "POSITION": 9
          },
          "indices": 11,
          "material": 3,
          "mode": 4
        }
      ]
    },
    {
      "name": "Object_4",
      "primitives": [
        {
          "attributes": {
            "NORMAL": 13,
            "POSITION": 12
          },
          "indices": 14,
          "material": 4,
          "mode": 4
        }
      ]
    }
  ],
  "nodes": [
    {
      "children": [
        1
      ],
      "matrix": [
        1.0,
        0.0,
        0.0,
        0.0,
        0.0,
        2.220446049250313e-16,
        -1.0,
        0.0,
        0.0,
        1.0,
        2.220446049250313e-16,
        0.0,
        0.0,
        0.0,
        0.0,
        1.0
      ],
      "name": "Sketchfab_model"
    },
    {
      "children": [
        2,
        3,
        4,
        5,
        6
      ],
      "name": "07594447bafb4411bd540cc3a03070cf.obj.cleaner.materialmerger.gles"
    },
    {
      "mesh": 0,
      "name": "Object_2"
    },
    {
      "mesh": 1,
      "name": "Object_3"
    },
    {
      "mesh": 2,
      "name": "Object_4"
    },
    {
      "mesh": 3,
      "name": "Object_5"
    },
    {
      "mesh": 4,
      "name": "Object_6"
    }
  ],
  "scene": 0,
  "scenes": [
    {
      "name": "Sketchfab_Scene",
      "nodes": [
        0
      ]
    }
  ]
}
